<svg width="148" height="148" viewBox="0 0 148 148" fill="none" xmlns="http://www.w3.org/2000/svg">
<g filter="url(#filter0_d_2036_6109)">
<circle cx="74" cy="66" r="50" fill="#FFA000"/>
</g>
<g filter="url(#filter1_d_2036_6109)">
<circle cx="74" cy="66" r="42" fill="white"/>
</g>
<g clip-path="url(#clip0_2036_6109)">
<path d="M94.209 66C94.209 71.3043 92.1018 76.3914 88.3511 80.1421C84.6004 83.8929 79.5133 86 74.209 86C68.9047 86 63.8176 83.8929 60.0668 80.1421C56.3161 76.3914 54.209 71.3043 54.209 66C54.209 65.558 54.3846 65.134 54.6971 64.8215C55.0097 64.5089 55.4336 64.3333 55.8757 64.3333C56.3177 64.3333 56.7416 64.5089 57.0542 64.8215C57.3667 65.134 57.5423 65.558 57.5423 66C57.5423 69.2964 58.5198 72.5187 60.3512 75.2595C62.1825 78.0003 64.7855 80.1365 67.8309 81.398C70.8764 82.6595 74.2275 82.9895 77.4605 82.3464C80.6935 81.7033 83.6632 80.116 85.9941 77.7851C88.325 75.4542 89.9123 72.4845 90.5554 69.2515C91.1985 66.0185 90.8684 62.6674 89.607 59.6219C88.3455 56.5765 86.2093 53.9735 83.4685 52.1422C80.7277 50.3108 77.5053 49.3333 74.209 49.3333C73.767 49.3333 73.343 49.1577 73.0305 48.8452C72.7179 48.5326 72.5423 48.1087 72.5423 47.6667C72.5423 47.2246 72.7179 46.8007 73.0305 46.4882C73.343 46.1756 73.767 46 74.209 46C79.5116 46.0057 84.5953 48.1147 88.3448 51.8642C92.0943 55.6137 94.2032 60.6974 94.209 66ZM71.3373 64.3333H67.5423C67.1003 64.3333 66.6764 64.5089 66.3638 64.8215C66.0512 65.134 65.8757 65.558 65.8757 66C65.8757 66.442 66.0512 66.8659 66.3638 67.1785C66.6764 67.4911 67.1003 67.6667 67.5423 67.6667H71.3373C71.5918 68.1087 71.9447 68.4862 72.3686 68.77C72.7925 69.0538 73.276 69.2361 73.7816 69.303C74.2873 69.3699 74.8016 69.3195 75.2847 69.1556C75.7677 68.9918 76.2066 68.719 76.5673 68.3583C76.928 67.9976 77.2008 67.5588 77.3646 67.0757C77.5284 66.5926 77.5789 66.0783 77.512 65.5727C77.4451 65.067 77.2627 64.5835 76.979 64.1596C76.6952 63.7357 76.3177 63.3829 75.8757 63.1283V57.6667C75.8757 57.2246 75.7001 56.8007 75.3875 56.4882C75.0749 56.1756 74.651 56 74.209 56C73.767 56 73.343 56.1756 73.0305 56.4882C72.7179 56.8007 72.5423 57.2246 72.5423 57.6667V63.1283C72.043 63.4188 71.6278 63.834 71.3373 64.3333ZM57.254 60.64C57.5836 60.64 57.9059 60.5423 58.1799 60.3591C58.454 60.176 58.6676 59.9157 58.7938 59.6111C58.9199 59.3066 58.9529 58.9715 58.8886 58.6482C58.8243 58.3249 58.6656 58.0279 58.4325 57.7948C58.1994 57.5617 57.9024 57.403 57.5791 57.3387C57.2558 57.2744 56.9207 57.3074 56.6162 57.4335C56.3116 57.5597 56.0513 57.7733 55.8682 58.0474C55.6851 58.3215 55.5873 58.6437 55.5873 58.9733C55.5873 59.4154 55.7629 59.8393 56.0755 60.1518C56.388 60.4644 56.812 60.64 57.254 60.64ZM61.244 54.6783C61.5736 54.6783 61.8959 54.5806 62.1699 54.3974C62.444 54.2143 62.6576 53.954 62.7838 53.6495C62.9099 53.3449 62.9429 53.0098 62.8786 52.6865C62.8143 52.3632 62.6556 52.0662 62.4225 51.8332C62.1894 51.6001 61.8924 51.4413 61.5691 51.377C61.2458 51.3127 60.9107 51.3457 60.6062 51.4719C60.3016 51.598 60.0413 51.8116 59.8582 52.0857C59.6751 52.3598 59.5773 52.682 59.5773 53.0117C59.5773 53.4537 59.7529 53.8776 60.0655 54.1902C60.378 54.5027 60.802 54.6783 61.244 54.6783ZM67.174 50.735C67.5036 50.735 67.8259 50.6373 68.0999 50.4541C68.374 50.271 68.5876 50.0107 68.7138 49.7061C68.8399 49.4016 68.8729 49.0665 68.8086 48.7432C68.7443 48.4199 68.5856 48.1229 68.3525 47.8898C68.1194 47.6567 67.8224 47.498 67.4991 47.4337C67.1758 47.3694 66.8407 47.4024 66.5362 47.5285C66.2316 47.6547 65.9713 47.8683 65.7882 48.1424C65.6051 48.4165 65.5073 48.7387 65.5073 49.0683C65.5073 49.5104 65.6829 49.9343 65.9955 50.2468C66.308 50.5594 66.732 50.735 67.174 50.735Z" fill="#FFA000"/>
</g>
<defs>
<filter id="filter0_d_2036_6109" x="8" y="8" width="132" height="132" filterUnits="userSpaceOnUse" color-interpolation-filters="sRGB">
<feFlood flood-opacity="0" result="BackgroundImageFix"/>
<feColorMatrix in="SourceAlpha" type="matrix" values="0 0 0 0 0 0 0 0 0 0 0 0 0 0 0 0 0 0 127 0" result="hardAlpha"/>
<feOffset dy="8"/>
<feGaussianBlur stdDeviation="8"/>
<feComposite in2="hardAlpha" operator="out"/>
<feColorMatrix type="matrix" values="0 0 0 0 1 0 0 0 0 0.627451 0 0 0 0 0 0 0 0 0.1 0"/>
<feBlend mode="normal" in2="BackgroundImageFix" result="effect1_dropShadow_2036_6109"/>
<feBlend mode="normal" in="SourceGraphic" in2="effect1_dropShadow_2036_6109" result="shape"/>
</filter>
<filter id="filter1_d_2036_6109" x="0" y="0" width="148" height="148" filterUnits="userSpaceOnUse" color-interpolation-filters="sRGB">
<feFlood flood-opacity="0" result="BackgroundImageFix"/>
<feColorMatrix in="SourceAlpha" type="matrix" values="0 0 0 0 0 0 0 0 0 0 0 0 0 0 0 0 0 0 127 0" result="hardAlpha"/>
<feOffset dy="8"/>
<feGaussianBlur stdDeviation="16"/>
<feComposite in2="hardAlpha" operator="out"/>
<feColorMatrix type="matrix" values="0 0 0 0 1 0 0 0 0 0.627451 0 0 0 0 0 0 0 0 0.32 0"/>
<feBlend mode="normal" in2="BackgroundImageFix" result="effect1_dropShadow_2036_6109"/>
<feBlend mode="normal" in="SourceGraphic" in2="effect1_dropShadow_2036_6109" result="shape"/>
</filter>
<clipPath id="clip0_2036_6109">
<rect width="40" height="40" fill="white" transform="translate(54.209 46)"/>
</clipPath>
</defs>
</svg>
